<?xml version="1.0" encoding="utf-8"?>
<!-- Generator: Adobe Illustrator 24.2.1, SVG Export Plug-In . SVG Version: 6.00 Build 0)  -->
<svg version="1.1"
	 id="svg2" xmlns:cc="http://creativecommons.org/ns#" xmlns:dc="http://purl.org/dc/elements/1.1/" xmlns:rdf="http://www.w3.org/1999/02/22-rdf-syntax-ns#" xmlns:svg="http://www.w3.org/2000/svg"
	 xmlns="http://www.w3.org/2000/svg" xmlns:xlink="http://www.w3.org/1999/xlink" x="0px" y="0px" viewBox="0 0 651 198.6"
	 style="enable-background:new 0 0 651 198.6;" xml:space="preserve">
<style type="text/css">
	.st0{fill:#334254;}
	.st1{fill:#CBA022;}
</style>
<g id="g10" transform="matrix(1.3333333,0,0,-1.3333333,0,795.44)">
	<g id="g12" transform="scale(0.1)">
		<path id="path14" class="st0" d="M287.8,4516.6c-26.8,12.2-50.8,29.1-87.9,51.9c-44,27-89.8,51.1-133.4,78.7
			c-43.8,27.8-64.8,70-66.2,121.5c-0.8,31.9,0.4,217-0.3,248.9c-0.9,43.1,10.5,82.2,40.3,113.6c18.6,19.6,43.3,32.1,66.7,45.7
			c87.8,50.9,175.4,102.1,263.3,152.8c86.3,49.7,173.1,98.6,259.4,148.3c90,51.9,179.6,104.5,269.4,156.7c2,1.2,4.2,2.1,6.4,3.1
			c5.1-5.3,3-11.2,3-16.4c0.2-100.1-0.1-200.2,0.4-300.3c0.1-11.4-3.5-16.7-13.6-22.5c-75.9-43.2-151-87.6-226.6-131.4
			c-60.1-34.8-120.5-69.2-180.8-103.8c-51.2-29.4-125.9-72.9-177.1-102.2c-9-5.1-11.6-12.1-11.6-22.5c0.4-99.5-0.1-315.8-0.1-415.3
			C298.6,4517.6,291.2,4515.1,287.8,4516.6"/>
		<path id="path16" class="st1" d="M916.2,5818c-72.4-41.7-144.8-83.5-217.3-125.2c-60.2-34.6-120.5-69.2-180.7-103.8
			c-66.6-38.4-133.1-76.8-199.6-115.3c-60.6-35.1-121-70.8-181.8-105.6c-28.3-16.2-58.2-30.1-83-51.2c-24.8-21.2-41.2-48.8-46.2-82
			c-1.7-11.4-5.5-22.5-7.5-34.1c0,6.8,0,13.5,0,20.3c0,104.4,0,208.9,0,313.3c0,61.4,26.2,106.9,79.9,137.7
			c92.3,52.9,183.7,107.2,275.7,160.6c65.4,38,130.5,76.4,196.8,112.7c55.5,30.4,111,25.7,165.3-6c65.8-38.4,132.1-76,198.2-113.9
			C916.2,5823,916.2,5820.5,916.2,5818"/>
		<path id="path18" class="st0" d="M1834.5,5813.9l-0.1-89.8l-419.5,0.3l-0.2-254.6l367.9-0.3l-0.1-89.7l-367.9,0.3l-0.2-366.8
			l-106.6,0.1l0.6,800.9L1834.5,5813.9"/>
		<path id="path20" class="st0" d="M1942.1,5697.2l0.1,116.7l95.3-0.1l-0.1-116.7L1942.1,5697.2z M2037.4,5592.8l-0.4-579.9
			l-95.4,0.1l0.4,579.9L2037.4,5592.8"/>
		<path id="path22" class="st0" d="M2313.4,5813.6l421.3-649.7h2.3l0.4,649.5l101-0.1l-0.5-800.9l-116.7,0.1l-417.9,643h-2.3
			l-0.4-642.7l-101,0.1l0.6,800.9L2313.4,5813.6"/>
		<path id="path24" class="st0" d="M3568.1,5070.7c-54.6-51.2-132.4-76.8-233.4-76.7c-103.2,0.1-183.8,24.6-241.7,73.6
			c-57.9,49-86.8,127-86.8,233.9l0.4,511.5l106.6-0.1l-0.4-511.5c0-71.8,19-126.2,57.1-163.3s93.1-55.6,164.9-55.6
			c68-0.1,119.8,18.4,155.4,55.4c35.5,37,53.3,91.4,53.4,163.2l0.4,511.5l106.6-0.1l-0.4-511.5
			C3650.1,5198.7,3622.7,5121.9,3568.1,5070.7"/>
		<path id="path26" class="st0" d="M3969,5812.5l251.9-673.2l254,672.9l145.8-0.1l-0.5-800.9l-101,0.1l0.5,666.3h-2.2l-250.6-666.1
			l-90.9,0.1l-249.7,666.4h-2.2l-0.5-666.3l-101,0.1l0.5,800.9L3969,5812.5"/>
		<path id="path28" class="st0" d="M4860.3,5135.5l-0.1-124.5l-124.5,0.1l0.1,124.5L4860.3,5135.5"/>
		<path id="path30" class="st0" d="M1428.5,4662.6c21.3-0.3,36.9,4,46.8,13c9.9,8.9,14.8,21.8,14.8,38.7c0,16.8-4.9,29.7-14.8,38.5
			c-9.9,8.8-25.5,13.2-46.8,13.3l-73.5,0l-0.1-103.5L1428.5,4662.6z M1441.3,4797.7c28.4,0,49.9-7.4,64.6-22
			c14.6-14.6,21.9-35.1,21.9-61.4s-7.3-46.9-21.9-61.6c-14.6-14.7-36.2-22-64.6-21.7l-86.1,0.1l-0.1-115.3l-37.5,0l0.2,282
			L1441.3,4797.7"/>
		<path id="path32" class="st0" d="M1661.6,4719.7l0-43.1h0.8c8.2,16.6,18.2,28.8,30.1,36.7c11.9,7.9,26.9,11.6,45,11l0-35.5
			c-13.4,0-24.9-1.8-34.4-5.5c-9.5-3.7-17.1-9.1-22.9-16.2c-5.8-7.1-10-15.7-12.7-25.9c-2.6-10.1-4-21.8-4-34.9l-0.1-90.8l-33.6,0
			l0.1,204.2L1661.6,4719.7"/>
		<path id="path34" class="st0" d="M1827.9,4756.3l0,41.1l33.6,0l0-41.1L1827.9,4756.3z M1861.4,4719.6l-0.1-204.2l-33.6,0
			l0.1,204.2L1861.4,4719.6"/>
		<path id="path36" class="st0" d="M2032.7,4515.3l-75.7,204.2l37.5,0l57.2-170.3h0.8l55.8,170.2l35.1,0l-74.8-204.1L2032.7,4515.3"
			/>
		<path id="path38" class="st0" d="M2363.7,4620.5c-4.2-3.1-9.8-5.4-16.6-6.9c-6.9-1.4-14-2.6-21.5-3.5c-7.5-0.9-15.1-2-22.7-3.1
			c-7.6-1.2-14.5-3.1-20.5-5.7c-6.1-2.6-11-6.3-14.8-11.2c-3.8-4.9-5.7-11.5-5.7-19.8c0-5.5,1.1-10.1,3.4-13.9
			c2.2-3.8,5.1-6.9,8.7-9.3c3.6-2.4,7.7-4.1,12.4-5.1c4.8-1.1,9.8-1.6,15-1.6c11.1,0,20.5,1.5,28.4,4.5c7.9,3,14.4,6.8,19.4,11.4
			c5,4.6,8.7,9.6,11.1,14.9c2.4,5.4,3.6,10.4,3.6,15.1L2363.7,4620.5z M2418.2,4515.8c-5.8-3.4-13.8-5.1-24.1-5.1
			c-8.7,0-15.6,2.5-20.7,7.3c-5.1,4.9-7.7,12.9-7.7,23.9c-9.2-11.1-20-19-32.2-23.9c-12.2-4.9-25.5-7.3-39.7-7.3
			c-9.2,0-18,1.1-26.3,3.2c-8.3,2.1-15.5,5.4-21.5,9.9c-6.1,4.5-10.9,10.3-14.4,17.6c-3.6,7.2-5.3,16-5.3,26.3
			c0,11.6,2,21.1,5.9,28.4c3.9,7.4,9.1,13.4,15.6,18c6.4,4.6,13.8,8.1,22.1,10.4c8.3,2.4,16.8,4.3,25.5,5.9c9.2,1.9,18,3.2,26.3,4.1
			c8.3,0.9,15.6,2.2,21.9,3.9c6.3,1.7,11.3,4.2,15,7.5s5.5,8.1,5.5,14.4c0,7.4-1.4,13.3-4.1,17.8s-6.3,7.9-10.7,10.3
			c-4.4,2.4-9.2,3.9-14.6,4.7c-5.4,0.8-10.7,1.2-16,1.2c-14.2,0-26.1-2.7-35.6-8.1c-9.5-5.4-14.6-15.6-15.4-30.6l-33.6,0
			c0.5,12.6,3.2,23.3,7.9,32c4.8,8.7,11.1,15.7,19,21.1c7.9,5.4,16.9,9.3,27.1,11.6c10.1,2.4,21,3.5,32.6,3.5c9.2,0,18.4-0.7,27.5-2
			c9.1-1.3,17.3-4,24.7-8.1c7.4-4.1,13.3-9.8,17.8-17.1c4.5-7.4,6.7-17,6.7-28.8l-0.1-104.8c0-7.9,0.5-13.7,1.4-17.3
			c0.9-3.7,4-5.5,9.3-5.5c2.9,0,6.3,0.5,10.3,1.6L2418.2,4515.8"/>
		<path id="path40" class="st0" d="M2600,4719l0-29.6l-40.7,0l-0.1-126.8c0-4,0.3-7.1,1-9.5c0.6-2.4,1.9-4.2,3.7-5.5
			c1.8-1.3,4.4-2.2,7.7-2.6c3.3-0.4,7.6-0.6,12.8-0.6l15.4,0l0-29.6l-25.7,0c-8.7,0-16.1,0.6-22.3,1.8c-6.2,1.2-11.2,3.4-15,6.5
			c-3.8,3.2-6.7,7.6-8.5,13.4c-1.8,5.8-2.8,13.4-2.8,22.9l0.1,129.9l-34.8,0l0,29.6l34.8,0l0,61.2l33.6,0l0-61.2L2600,4719"/>
		<path id="path42" class="st0" d="M2836.7,4658.9c-3,7.1-7.1,13.2-12.2,18.4c-5.1,5.1-11.2,9.2-18.2,12.3c-7,3-14.7,4.6-23.1,4.6
			c-8.7,0-16.5-1.5-23.5-4.5c-7-3-13-7.2-18-12.4c-5-5.3-9-11.4-11.9-18.4c-2.9-7-4.6-14.4-5.1-22.3l117.3-0.1
			C2841.5,4644.2,2839.7,4651.8,2836.7,4658.9z M2844.7,4527.7c-15.3-11.6-34.5-17.4-57.7-17.3c-16.3,0-30.5,2.7-42.5,7.9
			c-12,5.3-22,12.7-30.2,22.1c-8.2,9.5-14.3,20.8-18.3,34c-4.1,13.2-6.4,27.5-6.9,43.1c0,15.5,2.4,29.8,7.1,42.6
			c4.8,12.9,11.4,24.1,20,33.5c8.6,9.5,18.7,16.8,30.4,22.1c11.7,5.3,24.6,7.9,38.5,7.9c18.2,0,33.2-3.8,45.2-11.3
			c12-7.5,21.6-17.1,28.8-28.6s12.2-24.2,15-37.9c2.8-13.7,3.9-26.7,3.3-39.1l-152.8,0.1c-0.3-9,0.8-17.5,3.1-25.5
			c2.4-8,6.2-15.1,11.4-21.3c5.3-6.2,12-11.1,20.1-14.8c8.1-3.7,17.8-5.5,28.8-5.6c14.2,0,25.9,3.3,35,9.9c9.1,6.6,15.1,16.6,18,30
			l33.2,0C2869.9,4556.5,2860,4539.3,2844.7,4527.7"/>
		<path id="path44" class="st0" d="M3339.4,4796.4l0-31.6l-147.7,0.1l-0.1-89.6l129.5-0.1l0-31.6l-129.5,0.1l-0.1-129.1l-37.5,0
			l0.2,282L3339.4,4796.4"/>
		<path id="path46" class="st0" d="M3440.4,4755.2l0,41.1l33.6,0l0-41.1L3440.4,4755.2z M3474,4718.5l-0.1-204.2l-33.6,0l0.1,204.2
			L3474,4718.5"/>
		<path id="path48" class="st0" d="M3620.9,4718.4l0-32.4h0.8c14,24.7,36.1,37.1,66.4,37.1c13.4,0,24.6-1.9,33.6-5.6
			c9-3.7,16.2-8.8,21.7-15.4c5.5-6.6,9.4-14.4,11.6-23.5c2.2-9.1,3.3-19.2,3.3-30.2l-0.1-134.3l-33.6,0l0.1,138.2
			c0,12.6-3.7,22.6-11,30c-7.4,7.4-17.5,11.1-30.4,11.1c-10.3,0-19.2-1.6-26.7-4.7c-7.5-3.2-13.8-7.6-18.8-13.4
			c-5-5.8-8.8-12.6-11.3-20.3c-2.5-7.8-3.8-16.3-3.8-25.5l-0.1-115.3l-33.6,0l0.1,204.2L3620.9,4718.4"/>
		<path id="path50" class="st0" d="M3998.4,4619.4c-4.2-3.1-9.8-5.4-16.6-6.9c-6.9-1.5-14-2.6-21.5-3.5c-7.5-0.9-15.1-2-22.7-3.1
			c-7.6-1.2-14.5-3.1-20.5-5.7c-6.1-2.6-11-6.4-14.8-11.2c-3.8-4.9-5.7-11.5-5.7-19.8c0-5.5,1.1-10.2,3.4-13.9
			c2.2-3.8,5.1-6.9,8.7-9.3c3.5-2.4,7.7-4.1,12.4-5.1c4.8-1.1,9.8-1.6,15-1.6c11.1,0,20.5,1.5,28.4,4.5c7.9,3,14.4,6.8,19.4,11.4
			c5,4.6,8.7,9.6,11.1,14.9c2.4,5.4,3.6,10.4,3.6,15.1L3998.4,4619.4z M4052.9,4514.7c-5.8-3.4-13.8-5.1-24.1-5.1
			c-8.7,0-15.6,2.5-20.7,7.3c-5.1,4.9-7.7,12.9-7.7,23.9c-9.2-11.1-20-19-32.2-23.9c-12.2-4.9-25.5-7.3-39.7-7.3
			c-9.2,0-18,1.1-26.3,3.2c-8.3,2.1-15.5,5.4-21.5,9.9c-6.1,4.5-10.9,10.3-14.4,17.6c-3.5,7.3-5.3,16-5.3,26.3c0,11.6,2,21.1,6,28.4
			c3.9,7.4,9.1,13.4,15.6,18c6.5,4.6,13.8,8.1,22.1,10.5s16.8,4.3,25.5,5.9c9.2,1.8,18,3.2,26.3,4.1c8.3,0.9,15.6,2.2,21.9,3.9
			c6.3,1.7,11.3,4.2,15,7.5c3.7,3.3,5.5,8.1,5.5,14.4c0,7.4-1.4,13.3-4.1,17.8c-2.8,4.5-6.3,7.9-10.7,10.3c-4.4,2.4-9.2,4-14.6,4.8
			c-5.4,0.8-10.7,1.2-16,1.2c-14.2,0-26.1-2.7-35.6-8.1c-9.5-5.4-14.6-15.6-15.4-30.6l-33.6,0c0.5,12.6,3.2,23.3,7.9,32
			c4.8,8.7,11.1,15.7,19,21.1s16.9,9.3,27.1,11.6c10.1,2.4,21,3.5,32.6,3.5c9.2,0,18.4-0.7,27.5-2c9.1-1.3,17.3-4,24.7-8.1
			c7.4-4.1,13.3-9.8,17.8-17.1c4.5-7.4,6.7-16.9,6.7-28.8L4032,4562c0-7.9,0.5-13.7,1.4-17.4c0.9-3.7,4-5.5,9.3-5.5
			c2.9,0,6.3,0.5,10.3,1.6L4052.9,4514.7"/>
		<path id="path52" class="st0" d="M4179,4718l0-32.4h0.8c14,24.7,36.1,37.1,66.4,37.1c13.4,0,24.6-1.9,33.6-5.6
			c9-3.7,16.2-8.8,21.7-15.4c5.5-6.6,9.4-14.4,11.6-23.5c2.2-9.1,3.3-19.2,3.3-30.2l-0.1-134.3l-33.6,0l0.1,138.2
			c0,12.6-3.7,22.6-11,30c-7.4,7.4-17.5,11.1-30.4,11.1c-10.3,0-19.2-1.6-26.7-4.7c-7.5-3.2-13.8-7.6-18.8-13.4
			c-5-5.8-8.8-12.6-11.3-20.3c-2.5-7.8-3.8-16.3-3.8-25.5l-0.1-115.3l-33.6,0l0.1,204.2L4179,4718"/>
		<path id="path54" class="st0" d="M4552.2,4682.2c-8.4,7.1-19.7,10.7-34,10.7c-12.1,0-22.3-2.2-30.4-6.7
			c-8.2-4.5-14.7-10.4-19.6-17.8c-4.9-7.4-8.4-15.9-10.5-25.5c-2.1-9.6-3.2-19.5-3.2-29.8c0-9.5,1.1-18.7,3.3-27.6
			c2.2-9,5.7-16.9,10.5-23.9c4.7-7,10.9-12.6,18.5-16.8c7.6-4.2,16.7-6.3,27.3-6.3c16.6,0,29.5,4.3,38.9,13
			c9.4,8.7,15.1,20.9,17.2,36.7l34.4,0c-3.7-25.3-13.1-44.8-28.3-58.4c-15.2-13.7-35.8-20.5-61.8-20.5c-15.5,0-29.3,2.5-41.3,7.5
			c-12,5-22,12.1-30,21.3c-8,9.2-14.1,20.2-18.1,33c-4.1,12.8-6.1,26.8-6.1,42.1c0,15.3,2,29.5,6,42.8c4,13.3,10,24.9,18,34.7
			c8,9.9,18.1,17.6,30.2,23.3c12.1,5.7,26.2,8.5,42.3,8.5c11.6,0,22.4-1.4,32.6-4.2c10.1-2.8,19.1-7.1,26.9-12.9
			c7.8-5.8,14.1-13.1,19.1-21.9c5-8.8,8.1-19.3,9.5-31.4l-34.8,0C4566.1,4665,4560.6,4675.1,4552.2,4682.2"/>
		<path id="path56" class="st0" d="M4841.9,4657.5c-3,7.1-7.1,13.2-12.2,18.4c-5.1,5.1-11.2,9.2-18.2,12.3c-7,3-14.7,4.6-23.1,4.6
			c-8.7,0-16.5-1.5-23.5-4.5c-7-3-13-7.2-18-12.4c-5-5.3-9-11.4-11.9-18.4c-2.9-7-4.6-14.4-5.1-22.3l117.3-0.1
			C4846.7,4642.9,4844.9,4650.4,4841.9,4657.5L4841.9,4657.5z M4849.9,4526.4c-15.3-11.6-34.5-17.4-57.7-17.4
			c-16.3,0-30.5,2.7-42.5,7.9c-12,5.3-22,12.6-30.2,22.1c-8.1,9.5-14.3,20.8-18.3,34c-4.1,13.2-6.4,27.5-6.9,43
			c0,15.5,2.4,29.8,7.1,42.6c4.7,12.9,11.4,24.1,20,33.6c8.5,9.5,18.7,16.8,30.4,22.1c11.7,5.3,24.6,7.9,38.5,7.9
			c18.2,0,33.2-3.8,45.2-11.3c12-7.5,21.6-17.1,28.8-28.7c7.2-11.6,12.2-24.2,15-37.9c2.8-13.7,3.9-26.7,3.3-39.1l-152.8,0.1
			c-0.3-9,0.8-17.4,3.1-25.5c2.4-8,6.2-15.2,11.4-21.3c5.3-6.2,12-11.1,20.1-14.8c8.2-3.7,17.8-5.6,28.8-5.6c14.2,0,25.9,3.3,35,9.9
			c9.1,6.6,15.1,16.6,18,30l33.2,0C4875,4555.2,4865.2,4538,4849.9,4526.4"/>
	</g>
</g>
</svg>
