<?xml version="1.0" encoding="utf-8"?>
<!-- Generator: Adobe Illustrator 26.3.1, SVG Export Plug-In . SVG Version: 6.00 Build 0)  -->
<svg version="1.1" id="Ebene_1" xmlns="http://www.w3.org/2000/svg" xmlns:xlink="http://www.w3.org/1999/xlink" x="0px" y="0px"
	 viewBox="0 0 595.3 283.5" style="enable-background:new 0 0 595.3 283.5;" xml:space="preserve">
<style type="text/css">
	.st0{fill:#05164D;}
</style>
<path class="st0" d="M98.4,186.6h25.3L87.3,86.8H59l-36.3,99.8H48l5.6-16.8h39.2L98.4,186.6z M60,150.2l13.1-40.1l13.2,40.1H60z
	 M136.7,186.6h13V86.8h-21.6V178C128.2,183.7,131,186.6,136.7,186.6z M201,112.6c-9.4,0-16.3,2.8-21,7.4V86.8h-21.6v99.8h20.3v-6.7
	c4.7,5.4,11.9,8.8,22.3,8.8c25,0,34.1-15,34.1-38.1C235.1,127.5,226,112.6,201,112.6z M196.3,169.6c-11.9,0-16.9-7-16.9-19
	c0-12,5-19,16.9-19c11.9,0,16.9,7,16.9,19C213.2,162.6,208.1,169.6,196.3,169.6z M288.9,177.6v9h19.7v-47.2
	c0-19.8-11.6-26.8-32.6-26.8c-21.3,0-31.6,8.1-32.5,23.4h21c0.3-4,2.6-7,11.4-7c7.9,0,11.6,2.6,11.6,6.4c0,3.4-2.1,4.7-7.4,5.3
	l-13.7,1.4c-18.6,2-27,9.7-27,23.7c0,13,8,23,25,23C276,188.7,282.8,185,288.9,177.6z M288,154.2v4.4c0,7.8-7.4,13.7-18.9,13.7
	c-5.6,0-8.9-2.6-8.9-7.4c0-3.7,2.3-6.8,9.6-7.8l12.4-1.7C284.4,155.1,286.7,154.6,288,154.2z M361.9,132.2v-17.5h-16.5v-21h-21.6v21
	h-10.9v17.5h10.9v30.4c0,17.4,10.4,25.2,27.8,25.2c5.3,0,10.3-1.1,10.3-1.1v-17.3c0,0-3.6,0.4-6.2,0.4c-6.3,0-10.3-2-10.3-9.7v-28
	H361.9z M412.5,133.5v-20.7c-0.9-0.1-3.1-0.3-4-0.3c-10.9,0-16.9,4.8-19.8,10.4h-0.1v-8.3h-20.3v71.9h21.6v-40.5
	c0-9.3,5.7-13.1,13.4-13.1C406.2,133,409.2,133.1,412.5,133.5z M414.1,150.6c0,23,11.3,38.1,38.8,38.1c27.5,0,38.8-15.1,38.8-38.1
	c0-22.9-11.3-38.1-38.8-38.1C425.4,112.6,414.1,127.7,414.1,150.6z M436,150.6c0-12,5-19,16.9-19c11.9,0,16.9,7,16.9,19
	c0,12-5,19-16.9,19C441,169.6,436,162.6,436,150.6z M529.2,188.7c23.5,0,33.5-9,33.5-24.1c0-15-9.1-20.7-27.5-23.1l-7.6-1
	c-6.2-0.9-7.9-2.6-7.9-5.7s2.7-5.5,9.9-5.5c7.3,0,9.6,2.6,10.3,6.7h21c-1-15.5-11.5-23.4-31.3-23.4c-22.5,0-31.5,10-31.5,23.8
	c0,14.3,9.1,20.4,25,22.5l7.6,1c7.4,1,10.3,2.7,10.3,6.4c0,4-3.4,6-11.9,6c-8.3,0-12-2.6-12.6-7.8h-21.3
	C495.7,178.9,504.4,188.7,529.2,188.7L529.2,188.7z"/>
</svg>
